<?xml version="1.0" encoding="UTF-8"?>
<svg version="1.1" viewBox="0 0 2048 759" width="526" height="195" xmlns="http://www.w3.org/2000/svg">
<path transform="translate(60,23)" d="m0 0 5 1 17 9 11 8 13 10 13 11 22 22 9 11 7 8 13 18 14 19 13 18 9 15 10 18 10 21 8 24 4 20 1 10v27l-3 24-6 25-12 38-4 16-2 19v36l-5-1-8-9-2-4-1-14 2-24 5-24 7-20-16 10-13 5-13 3 6 8 8 16 5 21 5 34 6 2 16 8 26 15 28 15 23 10 29 11 11 3 3-15 7-19 8-15 8-10 10-10 13-10 4-3h2v-3l-16-2-16-7-12-8 2 7 1 7v23l-3 18-6 18-6 11-4 5-4 2h-9l1-5 9-24 5-19 1-7v-19l-5-26-11-35-6-16-9-17-12-13-14-11-9-9-6-12v-9l5-8 5-4 5-2 6-1h31l13-5 11-8 16-15 14-11 14-8 18-6 12-2h29l16 4 12 6 11 9 9 11 8 15 5 15 2 9 1 9v16l-3 20-5 17-9 19-9 14-9 12-14 15-9 9-14 11-39 26-13 10-7 6-9 12-6 12-6 18-2 10 10 2 27 2h16l32-3 26-5 30-10v2h-2v2l-14 9-27 14-25 10-13 4h-2l6 48 9 65 4 30v10l-8 4-5 1-2-4-17-133-2-16-7 1-1 1 3 23 9 81 5 47-1 7-4 1-2-1-3-23-12-107-3-27-4 1h-8l2 15 7 76 6 61v9l-3 2h-4l-1-2-8-84-6-71v-5l-12 2 8 116 3 39v8l-6 2-1-1-3-34-10-129-12-1 4 63 3 53 2 40v11l-7 1-1-2-3-57-6-105-1-4-10-1 1 45 4 109v16h-7l-2-44-5-126-12-3 2 125 1 49h-8l-1-49-1-74-1-49-1-3-11-3v178l-4 1-4-1v-181l-8-1-5-2v22l-2 155-1 7h-8l1-50 2-108v-29l-11-4-1 32-2 44-3 98-1 15-1 1h-6l-1-1v-16l3-53 4-109v-12l-8-3-3-1-5 87-5 100-1 7h-6l-2-2 2-36 8-142v-16l-14-5-21-4-23-1-21 2-19 5-16 8-11 8-10 9-7 9-4-1-11-10-7-11-5-13-2-11v-9l2-13 5-14 7-11 7-8 14-11 12-7 15-5 20-4h24l19 3 28 9-4-28-5-16-6-11-7-8-11-7-18-7-16-7-12-7-11-10-5-5-7-8-11-18-6-15-4-16-1-9v-19l3-18 5-15 8-16 10-14 14-14 10-9 12-8 5-4 7-11 3-9v-18l-4-13-8-14-7-9-9-10-12-12-16-12-15-10-2-2 1-5zm91 101 1 7 1 31 16 2 11 4 4 1-2-6-10-13-12-17-8-9zm-7 54-17 5-11 7-10 9-7 10-6 13-4 12-3 20v13l3 21 5 17 8 16 8 11 10 9 13 8 13 5 8 2h15l16-4 11-7 8-7 9-12 5-12 4-20 1-14-2-20-4-20-7-19-9-16-11-13-12-9-10-4-4-1zm270 59-16 3-12 5-11 8-12 11-10 12-8 14-6 12-7 21-3 15v16l3 15 7 16 10 13 9 8 8 5 10 3 7 1h15l14-4 15-8 14-12 11-13 11-18 10-23 5-19 2-15v-10l-2-15-8-16-7-9-12-9-11-5-10-2zm-314 210-18 4-16 8-9 6-9 9-8 14-3 11v17l2 10 2 2 3-9 6-17 7-11 10-10 14-8 14-5 5-2-3 3-10 6-10 8-8 8-8 16v3l6-2 13-8 16-7 19-5 16-2h30l21 3 20 6 22 9 20 9 23 7 18 4 16 1-1-3-20-9-25-12-26-14-21-12-22-11-20-8-21-6-16-3z" fill="#9DD0F0"/>
<path transform="translate(1552,366)" d="m0 0 40 1 14 3 12 5 9 6 6 7 4 8 1 4v14l-6 12-7 7-10 6-14 5h-2l4 7 12 17 6 5 5-1 7-4h9l6 3 5 7 1 3v12l-6 9-8 5-3 1h-12l-10-5-9-8-8-14-7-18-4-9-4-6-10-2 2 27 3 15 8 17-1 1h-43l-18-1 3-5 6-7 4-16 1-9v-61l-2-17-4-11-7-9v-3zm27 11-3 4-2 9-1 12v34l4 1 10-3 8-7 3-6 2-9v-12l-2-10-4-8-6-5z" fill="#9DD0F0"/>
<path transform="translate(1733,366)" d="m0 0h17l29 1 14 3 13 5 10 6 10 9 7 8 8 16 3 13v17l-4 16-7 14-10 12-14 10-15 6-14 3-23 1h-41l-14-1 2-4 6-9 4-14 1-6v-74l-4-15-9-15v-1zm25 10-5 5-2 11-1 19v54l1 16 3 13 1 2 3 1h8l12-3 8-4 8-8 8-16 4-18v-22l-3-15-5-13-7-10-9-8-13-4z" fill="#9DD0F0"/>
<path transform="translate(861,365)" d="m0 0h23l14 3 12 5 11 7 9 10 6 10 5 15 2 14v12l-2 16-5 15-6 10-9 10-10 7-12 5-13 3-9 1h-11l-18-3-14-6-11-8-8-9-8-16-4-15-1-7v-16l3-16 5-12 7-12 9-9 13-8 11-4zm10 9-10 3-7 6-7 12-4 13-2 10-1 13v10l2 19 4 15 6 12 10 9 6 2h9l10-4 8-9 5-11 3-12 1-7v-36l-3-16-5-13-6-8-6-5-4-2z" fill="#9DD0F0"/>
<path transform="translate(1951,365)" d="m0 0h22l18 4 14 7 12 11 7 11 4 9 3 12 1 7v19l-3 16-5 13-7 11-9 9-14 8-13 4-15 2h-10l-19-3-16-7-10-8-8-10-6-12-4-13-1-5v-26l4-17 8-16 9-10 8-6 15-7zm8 9-10 4-6 5-6 11-4 10-3 16v33l4 19 7 14 6 7 7 4 4 1h8l10-4 7-7 6-12 4-18 1-13v-16l-2-18-4-14-5-10-5-6-9-5z" fill="#9DD0F0"/>
<path transform="translate(531,366)" d="m0 0h45l22 1 14 3 12 5 11 8 6 8 4 13v11l-3 10-6 8-7 7-14 7-17 4-22 2 2 24 4 16 7 10v2l-25 1h-18l-18-1 2-5 6-8 4-18 1-54-1-22-4-16-6-10-2-5zm51 11-3 3-3 14v48h9l9-3 7-6 4-8 1-4v-25l-4-10-5-6-6-3z" fill="#9ED1F1"/>
<path transform="translate(1016,366)" d="m0 0h17l28 1 15 3 16 8 8 7 6 10 2 6v16l-5 12-7 8-10 7-11 4-14 3-9 1h-13l3 27 3 12 3 6 4 6v2l-29 1h-13l-20-1 2-4 7-8 4-14 1-10v-65l-2-15-4-10-7-9v-3zm33 10-5 2-2 2-2 11v51h10l12-6 5-7 3-11v-18l-4-13-5-7-6-3z" fill="#9DD0F0"/>
<path transform="translate(1379,366)" d="m0 0h14l11 1 10 4 6 7 8 18 18 49 11 30 7 14 5 7 8 7v3h-54l-4-1 2-5 3-4v-7l-8-26-1-1h-50l-4 10-4 16v9l4 6v2l-3 1h-34l-2-2 11-10 8-14 14-36 13-35 10-27-1-5-4-2-5-5-1-3zm10 31-6 14-11 29-4 11v2h44l-5-16-11-30-5-10z" fill="#9ED1F1"/>
<path transform="translate(1158,366)" d="m0 0h49l11 1-2 5-6 9-3 9-2 15-1 25 1 47 3 18h20l14-3 10-4 10-7 7-9 3-1 2 1v26l-2 7-16 1h-88l-13-1 2-4 6-8 4-13 1-6 1-25v-35l-1-16-3-13-6-11-3-4v-3z" fill="#9DD0F0"/>
<path transform="translate(692,367)" d="m0 0h63l-2 4-6 9-4 12-1 7v73l2 12 5 12 6 8v1l-42 1-21-1 2-4 6-8 4-14 1-7 1-30v-19l-1-23-3-15-6-11-4-5z" fill="#9ED1F1"/>
<path transform="translate(123,538)" d="m0 0 3 1-7 56-12 91-2 16-2 1-12-4v-13l8-65 10-73 7-6z" fill="#9DD0F0"/>
<path transform="translate(470,141)" d="m0 0 5 5 7 9 5 5 7 6 6 5-1 5-13 11-9 9-5 7-4-1-14-15-13-12 1-4 7-7 7-6 11-14z" fill="#9DD0F0"/>
<path transform="translate(155,527)" d="m0 0h6l1 1v11l-8 87-8 80-1 9-1 1h-5l-1-1v-12l14-151z" fill="#86B9D3"/>
<path transform="translate(176,526)" d="m0 0 5 1 1 5-10 135-4 53-5 1-3-2 1-17 5-64 5-67 3-38z" fill="#87BAD4"/>
<path transform="translate(195,533)" d="m0 0 5 1v35l-3 49-5 100-1 7h-6l-2-2 2-36 8-142z" fill="#87BAD4"/>
<path transform="translate(234,545)" d="m0 0 4 1 1 12v94l-1 68-1 7h-8l1-50 2-108 1-18z" fill="#87BAD4"/>
<path transform="translate(137,531)" d="m0 0h5v9l-13 117-6 52-4 1-3-2v-11l10-87 8-72 2-6z" fill="#88BBD5"/>
<path transform="translate(214,544)" d="m0 0 3 1 1 4 2 1v18l-2 44-3 98-1 15-1 1h-6l-1-1v-16l3-53 4-109z" fill="#87BAD4"/>
<path transform="translate(314,555)" d="m0 0 5 2 2 3 3 41 3 57 3 55v11l-7 1-1-2-3-57-5-87z" fill="#87BAD4"/>
<path transform="translate(334,555)" d="m0 0h7l-1 3h2l9 128 2 26v8l-6 2-1-1-3-34-9-117z" fill="#87BAD4"/>
<path transform="translate(355,556)" d="m0 0 7 2 7 77 7 71v9l-3 2h-4l-1-2-8-84-5-57z" fill="#87BAD3"/>
<path transform="translate(254,554)" d="m0 0h1v5l5 1 1 130v37l-4 1-4-1v-135z" fill="#85B8D2"/>
<path transform="translate(275,558)" d="m0 0 3 1 2 4 1 6 1 41 1 68 1 49h-8l-1-49-1-74v-45z" fill="#88BBD5"/>
<path transform="translate(299,557)" d="m0 0 2 2 1 8 3 90 2 53v16h-7l-2-44-3-74v-46z" fill="#87BAD4"/>
<path transform="translate(376,561)" d="m0 0 4 2 3 3 9 81 6 56-1 7-4 1-2-1-3-23-12-107-1-18z" fill="#88BBD5"/>
<path transform="translate(57,368)" d="m0 0 4 1 8 10 7 6 4 3-2 5-13 12-6 6-4-2-11-12-6-5 1-5 12-11z" fill="#9CCFEE"/>
<path transform="translate(398,612)" d="m0 0 3 1 2 12 2 4v9l2 1-1 2 1 2h2l4 7 2-1 2 10 2 6 2 9 2 14v10l-8 4-5 1-2-4-10-79z" fill="#86B9D3"/>
<path transform="translate(419,120)" d="m0 0 5 3 9 10-1 5-11 12-4-2-10-10-1-4 7-8 4-5z" fill="#86B9D3"/>
<path transform="translate(98,466)" d="m0 0h2l-1 3-11 6-11 9-7 7-4 6-10 2-3-2 2-4 7-8 8-7 16-8z" fill="#86B9D3"/>
<path transform="translate(104,432)" d="m0 0h24l3 1v2h-7v2l6-1 5 2-4 2-13 2h-6v3l-6-1v-2l-6 1-1-8-2-1z" fill="#87BAD4"/>
<path transform="translate(485,504)" d="m0 0h2v2h-2v2l-14 9-13 7h-9v-3l5-4v-2l24-8z" fill="#87BAD5"/>
<path transform="translate(416,122)" d="m0 0 5 5 4 2 2 8-2 5h-3l-1 3-5-3-1-4-3-1v-7l5-1v-3l-3-1z" fill="#9DD0F0"/>
<path transform="translate(113,544)" d="m0 0 3 1-2 5-4 23-2 14-2 6h-2v-9l5-36z" fill="#86B9D3"/>
<path transform="translate(739,419)" d="m0 0h1v45l-2-1-2-5-1-18 1-14z" fill="#84B7D0"/>
<path transform="translate(124,515)" d="m0 0h24l5 1-1 2-17 1-31 3 2-4z" fill="#88BBD5"/>
<path transform="translate(805,414)" d="m0 0h2v7l-1 10 1 3-1 6v4h-2l1 3-2 1-1-4v-16l2-12z" fill="#8DC0DC"/>
<path transform="translate(97,351)" d="m0 0 8 1v3l7 1 2 2 7 2 1 2-2 1-4 1-17-9z" fill="#87BAD4"/>
<path transform="translate(200,391)" d="m0 0h3v8l-2 3h2v7l-5 6h-1l1-16z" fill="#85B8D2"/>
<path transform="translate(56,31)" d="m0 0h2l2 5 5 2v2l4 1 11 8 1 2-5-1-16-11-5-4z" fill="#89BCD7"/>
<path transform="translate(1926,433)" d="m0 0 2 1 1 10 2 9-1 8-3-3 1-4h-2v-5l-1-2z" fill="#85B8D1"/>
<path transform="translate(358,421)" d="m0 0 5 1 8 3v2h7l5 2v1h-8l-13-4-4-2z" fill="#8ABDD7"/>
<path transform="translate(135,443)" d="m0 0 9 2 2 1-1 2-10 1-7-2 1-3z" fill="#87BAD4"/>
<path transform="translate(326,406)" d="m0 0h3l1 6h1l-1 9 1 4-3-1-2-10z" fill="#87BAD3"/>
<path transform="translate(132,179)" d="m0 0h2l-1 3-10 4-7 5h-2v-3l5-1v-3l6-4z" fill="#89BCD6"/>
<path transform="translate(50,401)" d="m0 0 4 1v2l5 2v-2h3l-1 5-4 2-7-8z" fill="#88BBD5"/>
<path transform="translate(470,141)" d="m0 0 4 4-4 4h-2l-1 2-3-1 2-5z" fill="#91C4E1"/>
<path transform="translate(803,430)" d="m0 0 4 2-1 8v4h-2l1 3-2 1z" fill="#84B7D0"/>
<path transform="translate(100,695)" d="m0 0 4 1v7l-6-2-1-4z" fill="#87BAD4"/>
<path transform="translate(56,31)" d="m0 0h2l2 5 5 2 1 4-9-5-2-2z" fill="#8BBED9"/>
<path transform="translate(237,293)" d="m0 0h1v11l-1 2-3-1v-7l1-4z" fill="#8CBFDB"/>
<path transform="translate(103,600)" d="m0 0 3 2 1 6-3 4-2-1v-8z" fill="#84B7D0"/>
<path transform="translate(413,521)" d="m0 0h8l2 2-12 3v-4z" fill="#8CBFDB"/>
<path transform="translate(407,213)" d="m0 0h5l-3 3-10 2v-3z" fill="#88BBD6"/>
<path transform="translate(59,226)" d="m0 0 2 2-3 8-3-1 1-7z" fill="#8DC0DC"/>
<path transform="translate(85,526)" d="m0 0 3 1-4 4-6 2 3-6z" fill="#89BCD6"/>
<path transform="translate(107,195)" d="m0 0 1 3-7 9h-2l2-5 3-4h2z" fill="#8ABDD7"/>
<path transform="translate(106,518)" d="m0 0h5l3 3-10 1z" fill="#8BBED9"/>
<path transform="translate(413,126)" d="m0 0h4v3l-7 3-3 2 2-4z" fill="#8ABDD8"/>
<path transform="translate(60,23)" d="m0 0h3l2 6-6-1-1 2 1-6z" fill="#89BCD6"/>
</svg>
