<?xml version="1.0" encoding="UTF-8"?>
<svg version="1.1" viewBox="0 0 2048 863" width="382" height="161" xmlns="http://www.w3.org/2000/svg">
<path transform="translate(1225,76)" d="m0 0h12l124 10 65 4 92 5 42 2 85 8 57 6 48 7 26 4 13 1 1 4-21-2-14-1-39-2-62-4-49-1-18-3-2-1v2l25 3 30 5 100 10 47 4 11 2 1 3-12-1-40-4-81-7-39-2h-34l-3 5-15-1-11-1h-9l-50-5-89-7h-13l-2 3-23 1-5 1 4 2 72 7 101 8 30 4 11 3 7 2 66 7 71 6 64 5 39 5 1 3-25-1-22-1-80-2-8 5-3 1 10 3 18 2 33 2 8 2 7 3 42 4 10 2-1 3-16 6 17 3 42 5 25 5 23 6 35 8 3 1-1 10 8 3 33 11 11 3-1 2-14 5-27 1-1 5 22 7v3l-31 2v2l30 5 5 1v2l-16 5-3 3 26 4 10 1v3l-6 4-5 1h-24l3 6 7 5 16 4 17 3v3h-14l-20-2h-29l-1 5 7 3 25 5 37 5 6 2-4 4-4 3h-2l-1 3v8l4 10-12-2h-13l-2 5v13l-2 1-9 1-12 6-3 2 12 5 10 5 18 4 3 2-1 5-6 3-5 1h-57v2l24 4 1 9 1 4 6 2 6 4v6l-6 5-5 2-44 6-12 1 2 5 5 2 24 10 2 2-1 4-5 6-12 4-10 5 1 5 4 2 4 3-1 6-5 4-1 3 3 5-10 3-1 2 13 3v4l-6 1h-27l2 6 4 2 8 3 14 3 13 2 1 3h-11l-15-2h-11l-3 8 24 3 23 3 4 2-3 3-8 2 2 9 1 6-24 1-1 8 2 4-6 2-10 2-11 6 24 8 17 3 2 1-2 4-6 3-5 1h-53l-2 1 21 4 2 2v7l9 3 4 3v5l-8 5-27 3-11 2-15 1-7 1 2 3 15 4 14 4 3 2-2 5-5 5-20 4h-4v4l6 2 5 4-1 5-5 2-1 8-13 4-4 2h-8l-6-1h-9l-6 2-21 2 12 4 14 5 15 4 2 6-1 5-24-3-23-3 1 3 13 4 6 2-1 2-9 1h-17l-13-3-13-1 1 3 8 3 31 6 19 5 1 2-16 2-14 7-14 3-57 1-5 1-129-12-41-4-54-3-12-1-77-3h-42l-4 1-18-2-12-2h-12l-2-1-11-1-42-2h-108l-7-1h-12l-10 1-32 1h-15l-3 10-98 2-25 2-14 2-57 5-52 2-14 1v2l4 1-1 4-4-1-1 1-46 3-55 3-36 4-27 4-12 5-15 2-31 3-23 3h-6l-6-10-2-2v-14l-4-2 6-7 8-4 37-9 10-4 6-4 4-5 24-3 12-2v-2l-83-1-2-3h-24l-43 2-29 3-32 5-25 7-22 4-28 7-11 4-11 2h-9l-14 2h-8l-4-2-17 1-13 2v4h28l1 3-7 1h-22l-4 1-34-3-19-3-3-3-9-2-1-3 11-3-4-2-37-5h-24l-9 1-12-1-12 2-39 3h-9l-1-1v-5l5-2 34-5 2-1 2-13v-2l-26-1 4-4 24-6 16-2 2-4 12-12 1-2h-30l-18 1-1-7-3-5-5-3v-2l19-2 31-1v-3l-4-2-3-3 3-5 6-4 3-5-6-2-27-6h-16l-14-3-16-8-11-6v-3l11-3 63-10 5-1-2-4-1-3 7-2 19-6 14-6h2l-1-3-7-3 2-4 4-1v-2l-13-1-3-1h-11l-18 1v-4l13-8 14-9 13-7 4-5 7-3 26-4h3l-1-2-4-1-15-1v-3l11-5 21-6 16-3 1-3-4-2 2-4 8-7 1-3-3-1h-40l-5-10-5-7 1-3 12-2 34-3 2-1-3-5-6-3 2-5 9-7h2l-1-9h-14l-10-6-7-2-9 1-11 2h-15l2-4 7-1-2-3-10-3-7-6-11-4-2-4 8-5 23-5 23-4 14-5 9-1v-2l-3 1 2-5 8-5 20-7 6-4 7-3v-3l-7-3 4-5h2v-3l-7-1-6-2-3-2-18 2h-11l-2-4 7-6 11-8 7-7 14-8 4-6 1-3 9-3 22-5 29-8 15-6 8-5 10-1-2-2v-5l32-5 2-1-1-2 2-4v-4h-35l-5-4-3-5v-2l-14-1 3-3 14-3 17-3 8-1 3 2 17-1 29-4v-17l2-2 30-1 9-3 26-4-1-2-30 1-36 3-35 4-20 6-4-1-2-1-5 2h-9l-5-5-1-5 5-6 5-4h5l3 7 8-1 12-6 10-6 6-2-2-3 1-6 10-4 17-7h3l-1-2-35-1-3-3-1-6 2-3h23l-2-6 1-5 6-4 16-5h2l-2-3-3-1-39 1-27 1h-14l3-3 16-3 38-5 10-1v-2l-9-2-52 6-56 8-3-1 9-6 9-4 29-7 39-7 38-5 44-5 5-1 25-1 41-5 23-4 22-3 18-1 47-11 52-12 75-15 21-4 4 1 9 9-1 7-6 5-1 2 20-2 51-7 74-7 55-4h13l3 3 3 1h13l26-2 14-2 20-1 76-2 40 1h46zm-317 99-5 5-2 3 1 8 7 11 8 10 11 11 14 9 17 8 27 8 20 6 15 6 14 8 14 10-1 5-10 13-12 13-4 8v6l4 6 14 7 18 6 15 3h17l5-5 1-3v-10l-1-8v-28h32l17 2 25 7 21 6 18 3h25l21-5 17-7 6-5 1-3v-7l-4-5-21-4-19-7-19-9-23-14-17-10-20-8-8-2-15-1-13 1-15 5-10 6-4 3-5-8-7-12-9-10-10-7-10-5-19-5-9-1-52-2-27-3-18-5-10-4zm-473 31-16 5-9 7-18 6-17 5-2 4 1 1h7l28-6 13-5 1-3v-4l20-4 2-1-1-4-1-1zm314 40-2 6 1 7 5 10 8 10 7 7 10 7 23 12 12 8 10 8 3 5-1 4-7 7-8 7-3 5 1 5 9 8 16 9 13 3 6-5 1-3 1-25 25 5 21 9 16 8 6 2 8 1h17l12-3 6-5-1-5-5-4-16-7-11-9-10-9-14-12-13-8-15-5h-11l-15 5-2-9-6-11-5-6-14-8-16-5-26-6-19-7-13-6zm1158 12 2 2 17 2-3-2-10-2zm-1009 132-4 9-6 12-16 4-9 2-1 4 7 3 10 2 2 1-2 18v5l3 1 4-4 8-16 3-5 21-3 4-2-2-4-17-5-1-1v-8l1-12zm-65 11-6 9-18 37v2l-42 6-12 3 1 4 8 3 36 6-7 45 2 4 4-2 10-21 7-15 5-9v-2l22-3 19-3 9-3 3-4-16-4-25-4-2-1 1-13 4-25v-9zm130 11-3 3-1 6 4 8 8 10 10 8 14 8 18 6 32 8 16 7 11 8-3 6-7 9-7 8-3 9 4 5 9 4 19 5 7 1h11l6-3 2-4-2-12-1-5v-13l5-3 6-1h24l34 8 7 1h26l14-4 15-8 5-5 1-3-3-5-26-6-19-8-24-13-12-5-13-4h-20l-13 4-9 6-4 2-9-14-8-8-12-6-16-4-10-1-24 1-12 1-33-4-7-3zm-741 72v3l7-1v-2zm15 0v2h7l-1-2zm606 19-8 15-12 1-5 2 1 4 11 4 1 16 5-1 4-9 4-6 1-1 12-1 4-2-2-4-5-2-6-1-1-14zm373 60-4 5-8 18-5 15-7 28-1 16-2 13-1 17 1 3-1 5v10l3 8 2 1h6l6-4 3-1v-3l3 1-1 4 11 2 5 1 7-1 13-4 9-7 11-10 5-7 3-8v-15l3-1 2-7v-13l2-7v-8l-7-19-6-9-8-7-4-2h-13l-11 3-10 3-1-10-2-10zm-338 7-10 4-10 9-8 11-8 16-7 21-1 5v22l3 18 4 12 8 9 7 4h11l3 2 8-3 5-5 8-13 6-11 4-10 6-26 2-9v-21l-2-1v2h-3l-2-14-5-10 1-3 3 1-2-5-6-4-3-1zm458 0-11 4-7 5-9 12-9 17-6 16-3 14v18l3 19 4 13 7 8 6 4 8 2h12l6-4 6-7 11-20 6-18 5-20v-14l-2-15-4-10-3-7 4 2 4 9 1-4-6-14-5-7-6-3zm-521 0-18 6-4 2-6-1-8-4h-10l-10 5-11 9-7 8-1 1-1-16-2-2h-5l-7 8-5 12-4 15-5 28-3 29v9l2 12v7l2 3h7l4-8 6-24 3-16 1-2 10-2 10-5 10-9 6-5 7-8 7-10 7-14v-8l1-3 3 5v11l-4 31-3 33-1 16-4 6-12 9-2 4 5 3 18-1 14-7 7-4 13-10-1-2-10-2-7-2-1-1 1-11 4-25 4-35v-15l3-3 7-4-1-4-6-9zm259 3-9 7-8 8-10 13-14 25-15 34-6 17-3 14v5l4 1 5-5 5-4v-2l4-2 9-13 6-10 3-1 16-2 9-2 1 18 5 27 2 11h6l7-13 3-4 2-14 3-5-2-16v-13l7-5-1-5-7-3-2-12-4-8 1-13-2-13-3-9-8-3-2-3zm58 2-5 5-6 16-4 10-5 25-4 15v13l2 2 2-1-1 2-3 2v9l3 10v12l3 3 3 6 3-3 9-31 3-8v-3h2l3 10 6 11 11 12 10 8 3-1 2-7v-10l-8-17-6-10-4-5 2-6 12-12 6-7-1-2-20 20v-3l9-10 8-8 7-6 2-1 1-4 7-14-1-12-7-8-2-1h-6l-19 9-10 7 2-11-5-6zm-231 6 1 3zm43 0-6 10-4 11-4 20-9 52v18h2l-4 12v6l3 2 9 2 3-3 1-2 17-3 23-9 24-8 4-2 4-10 1-7-1-1h-17l-27 7-20 7h-2l6-36 3-23 3-24-1-8-3-9-2-2zm-42 3 1 2zm1 3 1 2zm271 31m-1 1-2 4 3-2zm-1031 74v2h2v-2zm-37 63 3 2 8 2v-3l-2-1zm716 33-27 1 1 2h46v-3z"/>
<path transform="translate(1093,38)" d="m0 0h104l50 2 46 3 38 2 57 6 31 4-1 4-17-1-10-2-1 1h-10l-34-3h-8l-5 3-42-1-30-2-44-2-72-1-36-1-37-2-2-4 4-3 10-1h3z" fill="#020202"/>
<path transform="translate(1237,591)" d="m0 0h6l8 5 4 5 3 8 2 14v11l-2 17-3 10-6 10-8 9-6 4-5 1-9-4-6-3-3-4 1-5 3-5v-14l3-17 2-16 5-12 9-12z" fill="#010101"/>
<path transform="translate(877,587)" d="m0 0h6l5 7 3 11v23l-5 24-5 12-7 12-4 2h-9l-5-6-3-7-2-15v-15l4-17 5-13 8-11z"/>
<path transform="translate(1336,586)" d="m0 0 4 1 5 10 2 7v27l-4 21-5 12-6 10-3 3-11 1-5-6-4-10-1-6v-21l3-14 6-16 6-9 9-8z"/>
<path transform="translate(974,48)" d="m0 0 15 1 2 5-1 4-10 5-6 1h-32v3l-4-1v-2l-30 1-18 2h-14l-7 2-13 4h-8l-9 1-12 3-2-2-8 1-8 3h-9l2-4 5-5 11-5 9-2 9 1 2 1 5-3 24-4 29-4 60-5z"/>
<path transform="translate(1160,590)" d="m0 0h6l1 1v8l-5 12-6 9-9 10-6 4-3-1-1-2v-12l3-8 10-14 6-5z"/>
<path transform="translate(767,588)" d="m0 0h5l1 5-4 11-11 14-4 4-10 4-5-1-1-4 3-10 6-8 9-9z"/>
<path transform="translate(1257,644)" d="m0 0h1v7l-3 10-6 10-8 9-6 4-5 1-2-1 1-5 4-5 3-2 3-5 9-12 2-3h2l1-5z" fill="#1F1F1F"/>
<path transform="translate(1069,604)" d="m0 0h1l-1 14v13l-2 6-5 3-5 2h-3l1-5 9-22z" fill="#010101"/>
<path transform="translate(1049,42)" d="m0 0h10v6l-4 2-6-1-4-3h-2l-4 5h-9l-5-2-1-3 4-1 4 1 6-3h8z"/>
<path transform="translate(1425,56)" d="m0 0 21 2 20 3v2l-15-1-22-2-4-1z" fill="#090909"/>
<path transform="translate(1394,52)" d="m0 0 25 3-1 4-17-1-9-2v-2h2z"/>
<path transform="translate(195,480)" d="m0 0 2 2-5 3-27 5h-2v-2l11-4 18-3z" fill="#020202"/>
<path transform="translate(1049,42)" d="m0 0h10v6l-4 2-6-1-5-5z" fill="#1F1F1F"/>
<path transform="translate(321,316)" d="m0 0h5l-2 2-6 3h-19v-3l3-1z"/>
<path transform="translate(183,825)" d="m0 0h9l14 2v3h-10l-13-1z"/>
<path transform="translate(345,226)" d="m0 0 5 1-2 5-8 5h-2l-1-5z"/>
<path transform="translate(72,692)" d="m0 0h24l6 1v2h-22l-8-1z"/>
<path transform="translate(366,259)" d="m0 0h2l-1 3-10 3-8 2h-6l1-4 19-2z"/>
<path transform="translate(1576,113)" d="m0 0 9 1 10 2 20 3v1h-10l-25-4-4-2z" fill="#FEFEFE"/>
<path transform="translate(1012,60)" d="m0 0h21l-1 3h-30l1-2z" fill="#383838"/>
<path transform="translate(1025,45)" d="m0 0 6 1 5 3-3 1-8-1-1-3z" fill="#7B7B7B"/>
<path transform="translate(979,65)" d="m0 0h16l-1 2h-14z" fill="#101010"/>
<path transform="translate(1327,680)" d="m0 0 5 1-1 4-5-1z"/>
<path transform="translate(49,686)" d="m0 0 13 2v1h-12z"/>
<path transform="translate(140,467)" d="m0 0 6 1v3h-5l-2-3z"/>
<path transform="translate(873,677)" d="m0 0 1 3-1 4-4-1 2-4h2z" fill="#0C0C0C"/>
<path transform="translate(192,815)" d="m0 0 5 1v2l-4 1z"/>
<path transform="translate(966,65)" d="m0 0 4 1-5 1z"/>
<path transform="translate(280,804)" d="m0 0h3v2l-4-1z"/>
<path transform="translate(1150,670)" d="m0 0 2 1-1 2z"/>
<path transform="translate(800,599)" d="m0 0 1 4z"/>
<path transform="translate(62,689)" d="m0 0 3 1z"/>
<path transform="translate(762,618)" d="m0 0 2 1-2 1z" fill="#545454"/>
<path transform="translate(973,65)" d="m0 0 3 1z"/>
<path transform="translate(66,690)" d="m0 0 2 1z"/>
<path transform="translate(1149,668)" d="m0 0"/>
<path transform="translate(1148,666)" d="m0 0"/>
<path transform="translate(746,628)" d="m0 0"/>
<path transform="translate(1015,49)" d="m0 0 2 1z" fill="#FEFEFE"/>
<path transform="translate(1213,696)" d="m0 0"/>
<path transform="translate(1147,665)" d="m0 0"/>
<path transform="translate(1146,662)" d="m0 0"/>
</svg>
