<?xml version="1.0" encoding="UTF-8"?>
<svg version="1.1" viewBox="0 0 2048 645" width="508" height="160" xmlns="http://www.w3.org/2000/svg">
<path transform="translate(1160,43)" d="m0 0 55 2 56 4 51 3 80 3 101 4 97 7 63 5 41 5 20 2v3l-17-1h-3-38l-56-3-42-1-27-2h-18l83 7 65 5 66 4 10 2 1 3-12-1-29-2-84-6-45-2-41 1-2 3-17-1h-21l-48-4-75-5-33-2-2 4-27 1 16 2 31 2 43 3 91 5 40 5 31 4 23 2 122 8 44 2 41 4v2h-28l-76-2h-32l-5 2-3 2 10 2 45 3 14 2 6 2 41 3 13 2 1 4-5 1-19 1 33 4 45 4 45 9 33 3v2l-6 2 1 5 13 4 11 3 5 2 14 3 14 4-1 2-14 2-4 1h-25l-1 4 17 3 6 3v1l-31 4 31 3 5 1-3 2-17 3-1 3 35 3 2 1v3l-10 3h-26l2 4 8 4 11 3 19 2 4 1v2l-9 1-39-2h-15l-3 1-1 3 29 5 47 5 2 1v2l-11 6-1 2 4 9 1 3-25-1-3 2 2 11-16 3-11 3h-2v2l6 1 15 7 15 1 7 2 2 2v3l-17 5h-12l-12-2-33-1v2l13 1 10 2 8 4-3 4v2l6 1 11 5 9 1-2 6v2l25 5 7 2 24 4v2l-12 1-3 2h-28l-1 5 20 1 5 1v2l-2 1h-34v2l39 3 1 2-4 1-19 1 4 2 18 2 15 2v4l-11 1-23 1 1 2 18 5 22 1 2 4-68-1 3 3 41 5 27 2 7 2v3l-10 2 3 9v3h-26l1 7 1 3-17 2-9 4-2 1 16 4 2 1 23 2 1 1v5l-1 1-8 1-58 1 25 3-2 4-1 3 11 2 5 3-2 4-6 3-17 2-38 3-7 1 4 3 24 5 5 2-2 5-6 3-18 3h-4l4 4 6 3 1 3-3 3-6 2-2 5-6 2-9 2-5 1-6-2h-14l-2 2-8 1-19-2 13 3 9 4 13 3 12 1-1 10-16-1-35-5 3 3 21 5-1 3h-22l-29-3h-3l-1 2 27 4 30 5 7 2-1 2h-19l-1 3-10 4-9 1-65 1-4 2-53-5-67-4-70-5h-24l-2 1v-2l-100-3h-52l-4 2-4-2-24-3h-13l-21-2-15-1-4 1-21-1h-144l-30 1-10 1-3 6-2 1-84 1-50 3-8 1h-11l-6 1h-12l-5 1-26 2h-65v3h7v4l-30 1-45 2-54 3-20 2-26 2-3 2-9 2-2 2-49 2-22 3h-6l-6-7-2-1v-9l1-4-7-1 1-2 6-3 9-5 27-4 24-6 2-1v-5l26-3 15-3-47 1h-29l-8-2h-73l-49 5-31 6-26 4-29 5-13 4-6 1-31 2-8-1-1 4h-2v-3l-5-1-25 1-1 6-1 1h-19l-23-2-16-3-12-3-1-3 12-2-32-4-15-1h-22l-7 1h-19l-38 2h-18l-2-1v-3l6-2 36-4h3v-3h-6v-2l6-3 2-3-29-1 4-4 13-3 17-3 10-1h9l-2-3v-4l9-3 1-1-48-1-3-5v-2l-6-2-2-1v-2l17-3 36-2v-2l-8-2v-3l9-5 5-1-3-4h-10l-25 4-16 1 2-3 33-5-15-2-25-1-33-11-2-4 6-2 24-3 26-2 21-3h7l-4-4v-3l25-5 6-1-1-2h-34v2l-6-1h-14l-10 2-28 1-9 1h-10l-2-2 1-4 16-4 20-3 7-2-1-7 4-5-28-2 1-3 10-4 21-4 14-2 6-1-1-2-5-2 3-3 10-6-1-1h-45l-7-10-5-6 1-1 45-3h6l-2-4-5-2 1-5 10-6h2l-2-5-6-1-25 5-21 2 1-3 12-3 20-4 2-1h-9l-1-1h-20l-5 1h-18v-3h10l-1-2-15-2 2-4 1-3h-12l-6-4 1-4 19-4 50-6 11-3-2-4v-3l27-7 9-3h4l-3-5-4-4 6-4-9-1-4-2h-13l-20 1-2-3 10-7 9-5 5-4 16-7 7-8 7-2 15-2 36-7 15-4 8-1v-2l-20-1v-3l30-1 1-3 18-2 13-2 5-4 2-4h-38l-5-3-2-5-15-1v-2l15-4 23-2-1-4 3 1v3h15l31-3 7-1v-11l1-2 32-1 6-2 17-2-11-1h-28l-20 1-38 4-14 3-22 1-5-3v-2h-2l1-5 4-3 10-4 5-1-1 7h13l6-4 7-4 5-3h7l-4-5v-2l20-6 13-1v-2l-38-1-3-4v-5l6-2 20-1-3-4 1-3 10-4 14-3-4-1h-68l-12 1v-4l17-2 17-1 2-1 28-3 3-1h-26l-18 2-28 2-22 3-30 3v-2l17-7 31-6 22-3 41-5 33-3 31-3 9-1h13l49-4 24-3 19-2 19-1 37-6 45-8 61-10 39-6 16-2h7l11 7 2 4-5 4-5 2v2l55-6 45-4 52-4 31-1 33-2 5 2h42l21-2 56-1h82l29 1 12-1zm-222 18-4 4 2 4 7 6 13 8 27 13 29 8 55 11 27 9 14 7v2l-4 2-15 15 1 5 8 5 25 7 18 3 19 2 6-3-1-6-9-16-2-7h24l23 2 24 4 29 6 26 3h20l21-3 13-4 1-1-1-7-9-3-28-5-25-7-47-16-20-6-16-3-23-1-17 2-13 5-4-2-9-8-15-9-13-5-21-5-22-3-60-4-18-2-25-5zm-139 37-1 4 5 6 8 6 19 10 36 12 20 8 10 6v2l-12 8-2 3 3 3 15 7 15 4 12 1 3-3-5-16 26 4 39 11 15 3h32l2-1-1-4-9-4-24-8-34-16-21-7-5-1h-18l-10 2-9-10-14-8-15-5-49-9-15-4-12-4zm-451 47-12 2-16 7-19 5-17 3 3 2h16l25-5 10-3v-3l-3-1-1-2h10l13-2 3-3zm323 1-6 13-3 6-19 4-2 1v2l8 2h8l-1 19h4l7-16 2-2 18-2 2-1v-2l-9-3-8-1 1-7v-13zm-53 11-13 29-5 9-40 7v3l31 6h4l-5 31-1 8 4-1 5-10 12-27 1-1 39-6v-3l-24-5-9-1 3-24 1-6v-9zm1243 29v1h8v-1zm8 1v1h13v-1zm-815 20-2 1v5l9 7 16 8 20 7 25 5 26 5 26 7 6 3-2 4-7 8-3 4 2 4 6 3 25 5 6 1h18l1-4-9-15-2-4h24l25 3 28 4 10 1h24l17-3 5-3-1-5-5-3-22-3-25-7-40-12-18-3h-17l-15 4-4 3-4-2-8-7-14-7-20-5-24-2-30-1-25-2zm-817 23v2h5l-2-2zm392 8-3 3-3 9-12 2-1 4 9 2-2 12h3l5-8 2-4 12-2 1-4-2-1h-9l2-12zm708 44-5 4-8 13-1 7 3 2-7 2-9 24v7l-4 5-5 21-2 4v4h2l-4 6-3 11 1 5h3l-5 3-3 7 5 1-4 17v7l-3 9-2 34-4 4 1 4 1 3v6l1 2-1 12 2 20 3 4 2 5 10-1 5 1-1-7 13-1 7 6 7 3 30-2 18-4 10-6 12-11 12-8 6-7 8-11 7-11 9-25 6-25 2-19 1-16 1-1-1-8-11-28-9-20-6-10-7-6-9-7-7-3-9-1-20 4-20 6-5 1h-7l-1-16-1-2-4-1-1-2 2-4h-3v-2l4-1 1-6zm-728 15-13 2-13 5-11 6h-9l-2 1v10l-1 6h7l3 2-5 7v2l9-3 3 1-5 5-11 2 1 2 14-1-5 16-4 23-1 1-4 43-1 10-2 32-3 35-10 8-6 5-9 5-8 7-3 3 1 2 12 4 6 1 8-1 11-4 5 2 3 2 7-10 6-3 13-3 20-14 9-5 3-3-1-5-7-1-10 1-5-5-8-1-7 2 2-8v-5h-3v-4h2l1 2 3-6 2-10-1-7 3-9 4-28 3-31 2-19 1-26-1-9 4-4 13-8 3-6-3-3-6-2-1-4 2-5zm113 2-12 3-9 6-13 12-7 8-7 11-8 13-12 28-7 20-4 17-1 9v10l4 39 3 15 6 19 7 10 9 8 9 5 11 2 11 4 10-2 10-5 10-10 8-13 15-31 12-34 5-19 4-22 1-27v-13l-4-27-6-16-7-11-7-6-10-3zm356 0-3 2-4 8-9 6-6 5v2l-3 1-9 11-10 13-7 10-11 19-12 22-13 28-11 26-8 4v2h6l-4 10-7 18-4 15 1 4 2 1-5 3-1 6 1 10 3 3 7-1 6-7 6-10 7-8 10-14 11-18 9-12v-2h12l21-2 9-3 7-1 5 39 3 21 3 6 4-2-1 3-3 2 2 20 3 13 5 2 5-4 5-8 2-9 7-8 3-4 3-30 6 2 1-1-1-9-3-11-1-7v-20l-1-13 9-3 4-3 1-10-15-1-1-11-2-9-1-3 1-4-4-2v4l-1 2-1-7-2-21 4-2-3-12-2-18-3-12-4-7h-11l-2-11-3-3zm472 0-13 4-9 6-12 11-7 8-14 22-12 27-9 26-3 13-1 9v12l3 29 2 18 7 22 4 8 8 9 10 7 4 2 11 2 11 4 11-2 11-6 8-9 8-13 15-31 12-34 6-23 3-18v-7h-2l-1-8-1-4-2-15-4-14-4-18-6-18-8-11-1-2 7 4 7 8 6 12 4 15 3 22 1 8 2-1v-9l-3-25-6-18-7-12-8-7-11-3zm-1025 3-9 4-8 6-13 11-8 7-11 10-8 10-2 1 1-2 1-17v-17l-1-1h-11l-8 10-8 13-5 16-8 32-6 36-3 21-2 25-1 32 1 5h6v5l-1 2h2v3l2 1v3l-4-5-2-8h-2l-1 4 1 3v13h8v2l-7-1v6l1 2 13 2 3-3 5-16 3-14 3-10 4-16 4-24 2-5 6-3v-1l-6-2v-4l5 2 3 3 7-1 16-7 14-10 13-11 9-8 10-13 7-8 4-5 4-8v-2l-2-1v-3l2-1 1 3 4-5 3-7 2-19-1-23-6-5-7-3-13-2zm661 0-4 5v5h-8l-2 7-3 12-9 20-2 7-2 2-3 13-3 5v2l3-1 1-2v6l-3 9-1 7-2 8 3 1-2 2-7 4 1 3h2l-2 10-4 4 1 6-1 9 1 3-1 5v34l2-1v-5h2l3 16v8l-3 4-1 8 6 9 2 2h4l-1 9 4 1 5-19 13-41 2-11 2-4 1-8 3 3h2l3 11 8 9 4 8 2 8 3 4 5 10 7 8v-3l-8-13-2-4 8 7 9 10 10 12 5 2 1 3 7 1 1-4-2-8v-6l2-3-1-6-4-13-8-19-8-17-7-8-7-6 1-5 5-5 6-5 9-6 8-6 9-11 8-10 7-11 4-9h-3l-9 17-9 11-9 10-5 3 2-5 10-13 7-14-1-2-6 11-10 14-11 14-8 6-8 2 4-6 14-14 7-8 9-9 8-11 4-2 9-16 5-12 2-6 2-2v15h2l1-2v-22l-4-10-11-10-4-6-9 1-12 5-10 4-17 9-10 8-8 7h-1v-19l2-1v8l1 6 2-1v-18l-4-5h-5l2-3v-5zm-338 11-4 1-6 1-3 8v7l-5 3-5 16-5 23-9 53-5 25-5 32-3 48-5 12 4 2 4 1 3 3 6-4-1 7 4 1 5-8 2-4 2-1-4 11 1 5h3l4-12v-5l18-2 19-5 26-10 16-5 29-8 13-5 3-3-1-4h-3v-3l4-2 7-11v-4l-4-3-8-2h-16l-19 4-48 14-21 9-9 3 1-3 4-13 2-18 6-32 3-22 1-8 1-15 4-24 2-25v-7l-4-6v-14zm-284 25m-4 6m1334 15 2 2 12 1-2-2zm-1761 0-4 2 7 1-1-3zm12 1m9 0m1752 11 4 1zm4 1v1h7v-1zm7 1v1h5v-1zm-314 6m0 3v9h1v-9zm-1487 37-2 1v2l5 1 2-1-1-3zm1023 70 1 3zm-987 11-2 2h5zm1066 17m1 1m1 1m1 1m1 1m2 2 3 4h5l1-2zm-1089 22v5h3l-2-5zm729 28-23 1v1h44v-2zm47 1v1h6v-1z" fill="#A10A18"/>
<path transform="translate(1372,334)" d="m0 0h10l13 5 9 8 5 11 2 14 1 22-2 16-6 21-8 16-8 12-9 11-15 15-15 11-3 3h-6l-6-4-4-5-5-8 2-13 3-5h1v5l-2 3 7-1-3-5v-12l-1-3v-8l4-16v-9l3-4-1-8 1-6-1-3 3-16 7-17 10-16 9-11z" fill="#A10A18"/>
<path transform="translate(721,323)" d="m0 0h2l-1 5 2-1v-3l3 1v2h5l3 3 5 23 2 15 1 29v17l-4 16-2 16-6 15-9 17-8 12-6 3-8 2-4-2-10-1-5-7-3-10-3-8-4-12 1-8-2-7v-19l6-28 6-20 4-12 14-19 8-8 9-5 4-1-1-4z" fill="#A10A18"/>
<path transform="translate(1551,321)" d="m0 0 2 1 2 4 7 3 2 4 5 25 1 18v41l-4 20-2 11-5 13-9 17-8 12-5 3-7 1-15-2-5-5-3-9-4-9-3-9-1-2v-15l-1-4 1-23 5-24 5-16 4-12 6-10 11-14 9-8 8-4h3v-6z" fill="#A10A18"/>
<path transform="translate(1041,13)" d="m0 0h53l27 1 78 2 11 1 2 1 69 2 18 2 30 2 1 5-117-1-37-2-12-1-144-1-2-2-1 1h-9l-5-3-1 3-3-3v-3l3-1 16-1 5-1z" fill="#A30F1D"/>
<path transform="translate(1235,332)" d="m0 0h9l2 7v8l-4 13-9 19-11 14-11 13-6 4-8 3-7-1-2-2 1-25 6-14 12-17 9-11 9-7z" fill="#A10A18"/>
<path transform="translate(528,329)" d="m0 0 5 1-2 16-8 16-10 13-8 9-13 9-13 6-7 1-2-1-2-5v-9l3-11 6-9 9-10 13-13 10-7 8-4z" fill="#A10A18"/>
<path transform="translate(889,21)" d="m0 0h20l12 4v2l-8 3 11 3-1 3h-65l-11-2-52 4-7 2-54 6-5 1h-7l5-7 16-7 13-1 5 2 8-2 14-2 13-2 21-1 26-3 27-1z" fill="#A10C19"/>
<path transform="translate(1416,384)" d="m0 0h1l1 6v9l-2 12v10l-3 10-2 10-4 10-10 22-8 14-5 6-5 3-18 4-12 1v2l14-1 9-3h6l-1 4-15 6-9-1-5-4 1-5 14-12 11-9 11-11 10-14 8-15 6-17 4-19 2-15z" fill="#A20D1B"/>
<path transform="translate(1068,353)" d="m0 0h2v10l-1 13v26l-1 9-1 3 1 5-7 3-17 4h-6l1-5 13-30 8-18 3-4 3-13z" fill="#A20C1A"/>
<path transform="translate(746,304)" d="m0 0 6 2 5 4 7 11 5 12 5 23 1 10v17l-2 10-2 4-4 30-3 13-3 3 1-8 6-37 2-4v-12l-2-17-4-17-2-9-7-21-9-13z" fill="#A30F1D"/>
<path transform="translate(1440,371)" d="m0 0 2 1 5 19 1 16-2 21-5 20-6 16-5 9-2 1 2-9 4-11 5-23 1-9z" fill="#A20C1A"/>
<path transform="translate(1569,339)" d="m0 0 2 1 4 14 1 7v42l-2 11-2 1-2-55z" fill="#A71A27"/>
<path transform="translate(741,340)" d="m0 0 3 1 4 23v42l-2 3-2-33-3-26z" fill="#A20F1C"/>
<path transform="translate(1319,518)" d="m0 0 10 3 12 5 6 3-1 3h-14l-11-7-3-3z" fill="#A10B19"/>
<path transform="translate(1034,391)" d="m0 0 2 1-15 33-5 9h-4l6-16 6-12 8-13z" fill="#A3101D"/>
<path transform="translate(1201,458)" d="m0 0 5 3 7 9 8 13 1 6-4-2-9-10-6-10-2-5z" fill="#A3111F"/>
<path transform="translate(1207,497)" d="m0 0 4 2 15 16 7 8v2l-7-1-3-1-10-13-6-11z" fill="#A41320"/>
<path transform="translate(718,490)" d="m0 0h2l-1 6-6 10-7 3-5-1-3-4 13-8 3-1v-2z" fill="#A20E1B"/>
<path transform="translate(1546,490)" d="m0 0h2l-1 6-5 9-7 4-7-1-1-4 12-8z" fill="#A4121F"/>
<path transform="translate(973,16)" d="m0 0 10 1h5l2 5-2 2h-11l-6-5-1 4-1 1h-5l-2-4 2-3z" fill="#A10A18"/>
<path transform="translate(1363,28)" d="m0 0h27l14 1 1 3h-41z" fill="#A3101D"/>
<path transform="translate(1349,499)" d="m0 0m23 0h6l-1 4-15 6-9-1-5-4 1-4v3l14-1z" fill="#A41320"/>
<path transform="translate(510,383)" d="m0 0h2l-2 5-9 9-6 3h-2l-2 4-8 6-3-1 2-4 9-7 14-10z" fill="#A3101E"/>
<path transform="translate(585,407)" d="m0 0h2l-1 8-5 26-3 6h-1l1-13 4-20 2-6z" fill="#A20D1B"/>
<path transform="translate(1335,25)" d="m0 0h13l7 1 2 5h-22l-1-4z" fill="#AC2835"/>
<path transform="translate(1596,396)" d="m0 0h1v17l-3 21-3 9-2 1 3-22z" fill="#A61825"/>
<path transform="translate(1264,329)" d="m0 0 3 1 1 9-3 12-3 10-3 1 3-15v-13z" fill="#A51623"/>
<path transform="translate(280,588)" d="m0 0h27l-1 3-2 1h-26v-3z" fill="#A10A18"/>
<path transform="translate(1416,443)" d="m0 0 1 4-5 13-9 15-3 2 1-5 10-20z" fill="#A51522"/>
<path transform="translate(976,509)" d="m0 0 3 1-3 8-6 5-4-1 2-7z" fill="#A61826"/>
<path transform="translate(768,405)" d="m0 0h1v9l-4 23-3 6-1-4 6-33z" fill="#A41421"/>
<path transform="translate(260,158)" d="m0 0h6v2l-11 7-4 2-3-3 1-4z" fill="#A20F1C"/>
<path transform="translate(1566,500)" d="m0 0v3l-6 10-7 7-4-1 2-4z" fill="#A20C1A"/>
<path transform="translate(207,600)" d="m0 0h11l15 1v3h-22l-4-1z" fill="#AE2D39"/>
<path transform="translate(273,185)" d="m0 0 7 1v2l-12 2-14 1v-4z" fill="#A71A27"/>
<path transform="translate(736,502)" d="m0 0 1 4-7 9-5 5-4-1 1-4 8-7z" fill="#A30F1D"/>
<path transform="translate(1215,451)" d="m0 0 5 2 9 14 2 5-5-2-10-16z" fill="#A81E2A"/>
<path transform="translate(61,489)" d="m0 0h9l18 4 1 2h-13l-14-4z" fill="#A51523"/>
<path transform="translate(586,339)" d="m0 0h1l-1 8-7 17-2 1 1-8 5-15z" fill="#A51523"/>
<path transform="translate(888,496)" d="m0 0h5l-3 2-32 9-2-1 8-4 18-5z" fill="#A61826"/>
<path transform="translate(519,380)" d="m0 0h2l-3 9-6 8-4 3-2-1 11-16z" fill="#A3101E"/>
<path transform="translate(1055,431)" d="m0 0h5v2l-16 4-9 1 3-3 11-3z" fill="#A3111E"/>
<path transform="translate(1517,524)" d="m0 0 6 2 2 1 10 1 1 3-3 2-7-1-3-3-6-3z" fill="#A3111E"/>
<path transform="translate(605,300)" d="m0 0 3 3-4 2-13 2-2-1v-2l10-3z" fill="#A51422"/>
<path transform="translate(807,504)" d="m0 0 1 4-2 6 2 4-5 7h-1v-8l1-7z" fill="#A61926"/>
<path transform="translate(1406,477)" d="m0 0 1 2-5 9-6 8-6 1 6-7z" fill="#A3111F"/>
<path transform="translate(705,527)" d="m0 0h4l-1 4-2 2h-7l-3-3v-2z" fill="#A51623"/>
<path transform="translate(1078,305)" d="m0 0h2l2 6v5l-4 1-2-4 1-7z" fill="#A41220"/>
<path transform="translate(756,434)" d="m0 0h1l-1 9-5 13-3 5-1-2z" fill="#A51624"/>
<path transform="translate(951,32)" d="m0 0 9 1 1 2-10 1h-7l-2-1v-2z" fill="#A61825"/>
<path transform="translate(1707,77)" d="m0 0h10l7 1v3l-17-1z" fill="#AC2733"/>
<path transform="translate(1143,454)" d="m0 0 4 2v7l-2 6-4-2 3-3-1-5-1-4z" fill="#A71927"/>
<path transform="translate(1551,308)" d="m0 0 5 1 1 3-3 1-11 1 1-3z" fill="#B33945"/>
<path transform="translate(715,517)" d="m0 0h2l-1 5-2 2h-3v2l-3-1 1-4z" fill="#A30F1D"/>
<path transform="translate(1146,507)" d="m0 0 2 3v10h-3l-1-8z" fill="#A30F1D"/>
<path transform="translate(1583,437)" d="m0 0h1l-1 9-5 12-2 2 1-5z" fill="#A71A27"/>
<path transform="translate(1229,475)" d="m0 0 5 5 2 4 2 7-5-5-4-8z" fill="#A71B28"/>
<path transform="translate(582,314)" d="m0 0 2 1-1 5-4 2-5-1 3-3z" fill="#A51522"/>
<path transform="translate(1042,370)" d="m0 0 1 3-7 11-5 4 2-5 7-10z" fill="#A30F1D"/>
<path transform="translate(1541,518)" d="m0 0h3l-1 5-4 3h-2v-5z" fill="#A51623"/>
<path transform="translate(1377,522)" d="m0 0 4 1-8 4-9 1v-2z" fill="#A3101D"/>
<path transform="translate(723,308)" d="m0 0 4 1 1 4h-13l1-2z" fill="#A81C29"/>
<path transform="translate(1087,408)" d="m0 0h6v9l-3-1-3-7z" fill="#AA2330"/>
<path transform="translate(955,16)" d="m0 0 5 1v6l-5-1-1-5z" fill="#A10A18"/>
<path transform="translate(533,358)" d="m0 0 2 1-3 9-1 2h-3l1-5z" fill="#A10A18"/>
<path transform="translate(1728,79)" d="m0 0h7l2 1-1 4-6-1z" fill="#BE5862"/>
<path transform="translate(1390,504)" d="m0 0 3 1-5 6-4 1-2-2z" fill="#A3101E"/>
<path transform="translate(938,500)" d="m0 0h5l-4 3-11 3-3-1 10-4z" fill="#A3101E"/>
<path transform="translate(1089,521)" d="m0 0 2 2 1 9h-3l-1-1v-8z" fill="#A3101E"/>
<path transform="translate(1231,512)" d="m0 0 5 2 4 3-1 3-5-3-3-3z" fill="#A10A18"/>
<path transform="translate(524,306)" d="m0 0 4 1-3 3-9 2 4-4z" fill="#A9202D"/>
<path transform="translate(931,32)" d="m0 0 8 1 1 2-9 1-2-1v-2z" fill="#AF303C"/>
<path transform="translate(807,530)" d="m0 0 2 3-5 6-3-1 4-6z" fill="#A4111F"/>
<path transform="translate(830,528)" d="m0 0h6l2 2-1 1h-10v-2z" fill="#A71A28"/>
<path transform="translate(1208,430)" d="m0 0h6l1 3-2 2-4-1z" fill="#A41220"/>
<path transform="translate(664,472)" d="m0 0 2 1 2 5v5l-3-3-2-7z" fill="#A71B28"/>
<path transform="translate(1316,372)" d="m0 0h1v8l-1 2h-3l2-9z" fill="#A71B28"/>
<path transform="translate(1095,461)" d="m0 0 2 4-1 8-3 1z" fill="#A41320"/>
<path transform="translate(1184,451)" d="m0 0 4 1v6h-3z" fill="#A41320"/>
<path transform="translate(1491,473)" d="m0 0 3 1 3 9-5-4z" fill="#A10A18"/>
<path transform="translate(1147,441)" d="m0 0 2 1-2 5-4 1 2-5z" fill="#A41321"/>
<path transform="translate(1097,331)" d="m0 0 2 2 1 13h-2z" fill="#AC2734"/>
<path transform="translate(740,486)" d="m0 0 1 3-4 6-4 3 2-4z" fill="#B43E49"/>
<path transform="translate(1287,484)" d="m0 0 4 1 2 10-2 1-1-7-3-3z" fill="#A10A18"/>
<path transform="translate(1433,442)" d="m0 0h2v6l-1 2h-3z" fill="#A81E2B"/>
<path transform="translate(218,593)" d="m0 0h6v3h-6z" fill="#A51522"/>
<path transform="translate(1568,487)" d="m0 0 1 2-6 9-2 1 2-5z" fill="#BB4E58"/>
<path transform="translate(1419,407)" d="m0 0 2 1v11l-2-3z" fill="#A10A18"/>
<path transform="translate(471,403)" d="m0 0h8l-1 3-7-1z" fill="#A10A18"/>
<path transform="translate(449,368)" d="m0 0h1l-1 9-1 2h-2l2-10z" fill="#A10A18"/>
<path transform="translate(1076,357)" d="m0 0h3v5h-4z" fill="#A51522"/>
<path transform="translate(474,411)" d="m0 0 4 2-1 3-4-1z" fill="#A51623"/>
<path transform="translate(992,469)" d="m0 0 3 1v5l-3 1z" fill="#A51624"/>
<path transform="translate(1271,331)" d="m0 0h3l-2 5-4 1z" fill="#AA2330"/>
<path transform="translate(552,562)" d="m0 0h6v2l-9 1v-2z" fill="#B53F4A"/>
<path transform="translate(688,495)" d="m0 0 6 1-1 3-5-2z" fill="#AB2431"/>
<path transform="translate(1489,444)" d="m0 0 2 4v4h-2l-1-7z" fill="#A61724"/>
<path transform="translate(531,528)" d="m0 0h4l-1 3h-6z" fill="#A10A18"/>
<path transform="translate(613,498)" d="m0 0h3l-1 4-3 1v-4z" fill="#AB2633"/>
<path transform="translate(690,524)" d="m0 0 4 1 1 3-5-1z" fill="#A61926"/>
<path transform="translate(1374,515)" d="m0 0 3 1-1 3h-4z" fill="#A10A18"/>
<path transform="translate(1517,495)" d="m0 0 5 2v2l-5-1z" fill="#B23743"/>
<path transform="translate(661,444)" d="m0 0 2 1 1 7h-2l-1-2z" fill="#A71A27"/>
<path transform="translate(1160,436)" d="m0 0 3 1-1 4-3-1z" fill="#B33B46"/>
<path transform="translate(1084,406)" d="m0 0 2 2-1 5-2-1z" fill="#A71A27"/>
<path transform="translate(440,431)" d="m0 0h2v6l-2 1z" fill="#AE2D39"/>
<path transform="translate(541,534)" d="m0 0h6l-1 2h-6z" fill="#A10A18"/>
<path transform="translate(429,505)" d="m0 0 3 1-2 4h-2z" fill="#A81D2A"/>
<path transform="translate(466,406)" d="m0 0 4 1 1 3-4-1z" fill="#AF303C"/>
<path transform="translate(578,389)" d="m0 0 1 4-2 4-1-2z" fill="#A81D2A"/>
<path transform="translate(1307,361)" d="m0 0 2 4-3 3z" fill="#A81D2A"/>
<path transform="translate(1377,328)" d="m0 0h6v2h-6z" fill="#CC7C84"/>
<path transform="translate(437,575)" d="m0 0 4 2v2h-3z" fill="#E0B0B5"/>
<path transform="translate(594,495)" d="m0 0h4l-1 3-5-1z" fill="#B0333F"/>
<path transform="translate(587,465)" d="m0 0h1v6l-2 2z" fill="#A81E2B"/>
<path transform="translate(462,420)" d="m0 0h4l-1 3h-3z" fill="#A10A18"/>
<path transform="translate(574,404)" d="m0 0h1v6h-2v-5z" fill="#A81E2B"/>
<path transform="translate(466,394)" d="m0 0 2 1-1 4h-2z" fill="#A81E2B"/>
<path transform="translate(1299,388)" d="m0 0h2l-1 6-2-2z" fill="#B0333F"/>
<path transform="translate(1054,341)" d="m0 0 1 3-4 2 2-4z" fill="#A81E2B"/>
<path transform="translate(717,527)" d="m0 0 2 1-3 3h-2l1-3z" fill="#A10A18"/>
<path transform="translate(1161,444)" d="m0 0h1v6h-2z" fill="#A10A18"/>
<path transform="translate(946,20)" d="m0 0h3l-1 3h-3z" fill="#A10A18"/>
<path transform="translate(1140,477)" d="m0 0 3 1-1 3-2-1z" fill="#B43C48"/>
<path transform="translate(1084,403)" d="m0 0 4 1-1 3-1-2h-2z" fill="#A10A18"/>
<path transform="translate(590,361)" d="m0 0h1v5h-2z" fill="#BE5660"/>
<path transform="translate(1080,348)" d="m0 0 1 4h-3z" fill="#A10A18"/>
<path transform="translate(687,502)" d="m0 0 4 3-1 2-3-3z" fill="#B6434E"/>
<path transform="translate(990,464)" d="m0 0 2 1-1 4z" fill="#A10A18"/>
<path transform="translate(1096,456)" d="m0 0h1v5l-2-1z" fill="#C15F69"/>
<path transform="translate(1093,402)" d="m0 0 2 2-1 3-2-1z" fill="#C15F69"/>
<path transform="translate(1090,540)" d="m0 0 2 1-5 2z" fill="#A10A18"/>
<path transform="translate(1543,528)" d="m0 0 3 1-4 2z" fill="#AD2A36"/>
<path transform="translate(676,519)" d="m0 0 4 2-1 2z" fill="#C66C74"/>
<path transform="translate(1494,510)" d="m0 0 3 3h-3z" fill="#AD2A36"/>
<path transform="translate(984,488)" d="m0 0 3 1-3 2z" fill="#AD2A36"/>
<path transform="translate(964,33)" d="m0 0 3 1v1h-5z" fill="#D28C93"/>
<path transform="translate(1291,525)" d="m0 0h2l-1 3-2-1z" fill="#AF303C"/>
<path transform="translate(1243,526)" d="m0 0h3v2h-3z" fill="#A10A18"/>
<path transform="translate(667,510)" d="m0 0h2l-2 4z" fill="#A10A18"/>
<path transform="translate(603,504)" d="m0 0v3h-2v-2z" fill="#A10A18"/>
<path transform="translate(586,496)" d="m0 0h2v2l-4-1z" fill="#AF303C"/>
<path transform="translate(1178,440)" d="m0 0 2 1-1 3z" fill="#AF303C"/>
<path transform="translate(1119,424)" d="m0 0h3v2h-3z" fill="#AF303C"/>
<path transform="translate(1386,328)" d="m0 0 3 1-4 1z" fill="#AF303C"/>
<path transform="translate(1253,311)" d="m0 0 4 1h-4z" fill="#A10A18"/>
<path transform="translate(1518,576)" d="m0 0 1 3h-2z" fill="#A10A18"/>
<path transform="translate(1408,473)" d="m0 0 1 3-2 1z" fill="#B23743"/>
<path transform="translate(1085,390)" d="m0 0h2l-1 3z" fill="#D59399"/>
<path transform="translate(1086,383)" d="m0 0h1v5h-1z" fill="#A10A18"/>
<path transform="translate(210,204)" d="m0 0 3 1-3 1z" fill="#E6C1C4"/>
<path transform="translate(1365,573)" d="m0 0 4 1z" fill="#B6434E"/>
<path transform="translate(1504,519)" d="m0 0 3 1h-3z" fill="#A10A18"/>
<path transform="translate(897,500)" d="m0 0 2 2-3-1z" fill="#CC7C84"/>
<path transform="translate(1570,484)" d="m0 0v3z" fill="#B6434E"/>
<path transform="translate(46,349)" d="m0 0h3l-1 2z" fill="#A10A18"/>
<path transform="translate(595,314)" d="m0 0 2 1h-3z" fill="#CC7C84"/>
<path transform="translate(1083,38)" d="m0 0 4 1z" fill="#E2B5BA"/>
<path transform="translate(1889,569)" d="m0 0 1 2-2-1z" fill="#BE5660"/>
<path transform="translate(849,357)" d="m0 0" fill="#A10A18"/>
<path transform="translate(578,329)" d="m0 0h2l-1 2z" fill="#BE5660"/>
<path transform="translate(602,312)" d="m0 0 3 1z" fill="#BE5660"/>
<path transform="translate(1742,82)" d="m0 0 3 1z" fill="#BE5660"/>
<path transform="translate(801,525)" d="m0 0" fill="#CC7C84"/>
<path transform="translate(675,517)" d="m0 0" fill="#CC7C84"/>
<path transform="translate(609,501)" d="m0 0" fill="#CC7C84"/>
<path transform="translate(1195,468)" d="m0 0" fill="#A10A18"/>
<path transform="translate(1584,435)" d="m0 0" fill="#CC7C84"/>
<path transform="translate(832,412)" d="m0 0" fill="#A10A18"/>
<path transform="translate(942,20)" d="m0 0 2 1z" fill="#A10A18"/>
<path transform="translate(1092,539)" d="m0 0" fill="#A10A18"/>
<path transform="translate(1536,527)" d="m0 0" fill="#A10A18"/>
<path transform="translate(720,525)" d="m0 0" fill="#A10A18"/>
<path transform="translate(418,519)" d="m0 0" fill="#F8EFF0"/>
<path transform="translate(419,518)" d="m0 0" fill="#A10A18"/>
<path transform="translate(428,511)" d="m0 0" fill="#A10A18"/>
<path transform="translate(1518,505)" d="m0 0" fill="#A10A18"/>
<path transform="translate(1516,504)" d="m0 0" fill="#A10A18"/>
<path transform="translate(737,501)" d="m0 0" fill="#A10A18"/>
<path transform="translate(899,500)" d="m0 0" fill="#F8EFF0"/>
<path transform="translate(730,500)" d="m0 0" fill="#A10A18"/>
<path transform="translate(1560,499)" d="m0 0" fill="#F8EFF0"/>
<path transform="translate(900,499)" d="m0 0" fill="#F8EFF0"/>
<path transform="translate(731,499)" d="m0 0" fill="#A10A18"/>
<path transform="translate(899,498)" d="m0 0" fill="#F8EFF0"/>
<path transform="translate(732,498)" d="m0 0" fill="#A10A18"/>
<path transform="translate(611,497)" d="m0 0" fill="#A10A18"/>
<path transform="translate(1399,477)" d="m0 0" fill="#A10A18"/>
<path transform="translate(1409,472)" d="m0 0" fill="#F8EFF0"/>
<path transform="translate(1e3 461)" d="m0 0" fill="#A10A18"/>
<path transform="translate(1294,430)" d="m0 0" fill="#A10A18"/>
<path transform="translate(575,402)" d="m0 0" fill="#F8EFF0"/>
<path transform="translate(1088,369)" d="m0 0" fill="#A10A18"/>
<path transform="translate(45,348)" d="m0 0" fill="#A10A18"/>
<path transform="translate(1334,294)" d="m0 0" fill="#F8EFF0"/>
<path transform="translate(707,42)" d="m0 0" fill="#A10A18"/>
<path transform="translate(708,41)" d="m0 0" fill="#A10A18"/>
<path transform="translate(941,19)" d="m0 0" fill="#A10A18"/>
</svg>
