<?xml version="1.0" encoding="UTF-8"?>
<svg version="1.1" viewBox="0 0 2048 885" width="400" height="173" xmlns="http://www.w3.org/2000/svg">
<path transform="translate(1214,96)" d="m0 0h12l45 3 70 6 80 5 117 6 91 8 48 5 36 5 20 3 6 3-1 2-3 1h-27l-24-3-42-2-39-1-41-4v2l39 4 14 2 1 2-3 5h-40l-2 4h-9l-7-1-32-2-40-4-49-4-47-3-2 4h-24v2l36 4 54 5 89 7 20 3 11 3 7 2 45 5 76 7 81 6 36 4 5 2-1 2-61-1-67-2-9 2 1 4 24 4 36 3 7 2 5 2 39 3 9 4 2 3-6 2-15 1 2 2 31 3 18 3 23 2 19 6 28 7 13 2 15 1v2l-5 3 1 7 18 7 31 11 3 3-14 3-6 2-19-1-3 3v3l12 2 9 5 1 2-6 1-20 2-4 1 6 2 26 3 4 2-15 3h-3v7l19 2 12 1 1 4-8 4-3 1-22 1 2 5 6 4 21 5 10 2 1 4-19-1-26-2h-17l-1 4v2l16 4 38 6 17 2 4 2-5 5-7 6 2 11 3 3v3h-7l-10-3h-7l-3 5 1 9 1 3-5 2-10 2-13 5 4 3 17 8 19 4 4 4-4 5-8 3h-19l-13-1h-25l16 5 9 3 1 3-1 5 8 6 6 4-1 4-6 7-2 1-25 2-10 3-23 2v3l12 6 18 7 2 2-1 5-5 5-9 3-13 6 2 4 8 7-2 4-5 6 1 4 1 2-9 3-1 3h7l7 2v2l-11 4h-23l4 6 10 4 10 2 17 2 2 1v2l-3 1-20-1-14-2-3 4 1 4 14 3 34 3v3l-10 7-1 4 4 7v3l-15-2-9 1-2 2 2 10-2 2-11 1-9 3h-4l4 4 10 5 13 4 14 2 2 1v2l-11 6h-25l-17-1h-12l14 4 5 4 4 7 10 5-1 5-10 6-31 3-18 1-5 1 1 4 24 7 6 4-2 5-9 4-18 4-1 3 5 2 6 5-1 4-5 4 1 3-3 3-9 3-3 2-27 1h-30v2l12 3 32 11 3 2-1 5-2 2h-12l-20-3h-14l3 2 15 4 1 3-13 2-6 1-21-5-9-2-1 5 20 4 37 7 3 3-2 1-15 1-5 1 2 4-15 4-10 3h-71l-60-6-57-5-31-3-71-4-70-3h-64l-9-2-22-2-3-1-35-2-33-1h-73l-81 1-6 1-6 8-4 3h-74l-47 3-7 2h-12l-2 1-32 2-10 1-6 2-4-1v-2l-3 1-41 2-10 1-3 6-9 2-66 3-30 3-35 3-25 4-8 4-38 5-23 2-15 3-7-14-1-12-3-5 1-3 12-7 33-7 12-5 8-6 6-4 18-2 15-3v-1h-61l-3 1v-2h-2v2l-9-1-10-2-5-3-5 2-61 2-25 3-27 4-26 7-20 4-29 7-9 4-15 2-13 1-10 2v-3l2-1h-6v3l-6 1-1-2h-14l-12 3-1 4 12-2h13l4 2-7 3-6 1h-22l-38-4-14-3-11-3v-3l11-2v-2l-19-4-19-2h-44l-50 4h-14l-1-2 5-5 6-2 26-4 5-2 2-9 2-4-2-1-22-1v-3l9-3 11-3 7-1h14l6 3h5l-11-7 2-5 9-7 2-3-6 2v-2h-23l-12 2h-5l-1-4v-2l-7-10v-2l18-2 30-1-7-7 1-4 9-7 1-4-17-3-13-5-12 2h-14l-5-2-12-6-2-4 2-1-13-3-2-1 1-4 14-4 50-7 12-1-3-3 2-4 12-6 13-3 4-3 10-2 1-2-7-1v-3l6-4-4-2-13-4-22 2h-8l2-4 11-8 10-7 17-9 6-6 34-8 2-1-3-1-18-1 1-3 16-6 30-8 1-2-3-2 1-4 9-7v-2l-5-1h-31l-8 1-2-8-4-6-5-4v-2l15-3 25-3h11l-2-4-7-4 1-4 6-6h2l2-4 1-1-1-7-11 2-18 5h-18l1-2 11-2 11-1 4-4h2l-3-3-3-1h-22l-1 2-6 1h-10l-2-4 9-2-8-3-6-2-1-4 1-2-11-3-5-5 3-5 29-6 17-3 27-9-1-5 11-5 15-5 12-6-2-6-3-3 4-4 2-1v-2l-16-3-21 2h-8l-2-4 8-7 9-7 7-7 16-9 3-8 9-3 25-6 26-7 15-6-5-2-7-2v-3l26-2 2-3 20-4 9-3 6-6v-2l-33-1-7-1-2-8-15-2 2-4 17-4 19-2 32-1 16-3 2-1 1-16 1-1 29-1 9-3 24-3h2v-2l-51 2-30 3-23 3-9 2-2 9h-1v-7l1-2-3 1-16 2h-6l-4-5-1-6 8-7 7-4h3v8l7 1 8-4 12-9 9-2-4-7v-2l14-4 11-4h5v-2l-8-1-26-1-3-7v-6l1-1 21-1 3-2-3-4v-3l10-5 15-4v-2h-68l-1-5 21-3 36-6 5-2-39 3-43 5-43 7-4-1 4-4 12-6 22-6 36-7 42-6 32-4 20-2 5-2 5 1 15-1 36-4 44-7 32-3 33-8 27-6 25-6 25-5 34-7 36-7h7l11 11-2 5-6 7h7l26-4 29-4 47-5 43-4 33-2h23l6 3h16l40-4 81-2h29l17 1h44zm-311 97-3 1-5 8 1 6 9 14 10 12 11 9 14 8 16 7 36 10 16 6 16 8 14 10 4 5-9 11-18 21-2 8 3 5 5 4 20 8 18 5 10 1h9l5-3 3-7-3-25 1-8 1-9 33-1 17 2 42 12 19 3h25l21-5 13-5 9-8 1-6-3-5-9-3-15-3-21-8-21-11-19-12-23-12-16-5-6-1h-19l-12 3-10 4-13 9-3-10-6-10-8-10-8-6-14-7-12-4-17-2-38-1-24-2-19-3-16-5zm-466 32-12 2-3 4h13l12-3v-3zm-20 8-15 6-23 6-5 1v2l4 2h8l28-6 12-6v-3l-2-2zm330 29-3 4v7l4 9 7 10 8 9 10 7 27 14 11 8 9 8 3 4-1 3-8 7-11 11v5l5 5 17 10 13 5 6-2 2-7 1-16 1-8 22 4 14 5 23 12 10 3 9 1h14l11-3 6-4-1-4-6-5-9-4-10-6-13-11-12-11-12-9-15-6-4-1h-12l-8 2-3 2h-4l-3-12-7-10-8-7-13-6-21-5-16-4-19-7zm1137 14v2l12 2h5l-2-2zm-1553 58 4 2 1-2zm561 70-10 22-9 2-15 3v3l16 5 1 1-1 22h3l3-3 8-18 3-2 22-4 2-2-5-3-15-4 1-19-1-3zm-65 12-8 16-14 29v2l-21 3-31 5-2 1v2l9 3 34 6 2 2-6 37-1 8h4l6-10 12-27 4-8v-2l28-4 23-4 2-1v-2l-23-5-14-2h-6l1-17 4-24v-7zm129 10-4 6 1 6 9 12 10 9 14 8 10 4 36 9 14 5 11 6 6 4-1 5-10 13-8 11v5l5 4 12 5 13 3 9 1h9l5-3 2-4-2-13v-20h30l14 2 16 4 14 3h26l16-5 13-7 4-5-1-6-2-2-14-2-17-5-19-9-22-12-18-6-7-1h-8l-14 3-13 7-2 2h-3l-7-12-9-9-12-6-10-3-8-1h-21l-21 1-28-3-13-4zm-793 59m63 12 1 3h8v-3zm16 1-1 2h4v-2zm597 17-4 6-3 8-3 2-13 1-2 1v3l13 5-2 10v5l4-1 8-14 2-2 13-1 3-3-2-2-12-3 1-14zm365 59-6 10-10 26-4 16-2 11-2 18-2 9v8l-1 12 2 4-2 3v12l3 6 1 1 7-1 10-6 3 1-2 2v3l7-1 5 2h8l14-5 14-11 8-9 4-7 6-18 3-13 1-15-3-12-5-12-6-11-8-7-4-2h-13l-13 4h-7l-2-7-2-11zm-330 8-9 2-9 7-8 9-7 12-8 20-3 11v31l3 14 4 9 5 7 8 5 3 1h8v-2h3v2l7-1 7-7 9-16 4-7 4-11 5-22v-17l-5-25-5-15h2l-2-4-2-2-4-1zm447 0-9 3-10 9-7 9-8 15-7 19-2 13v11l2 20 5 15 6 8 8 5 8 1h8l6-3 5-5 10-17 6-14 4-15 3-14v-12l-3-17-8-24 1-1 2 1-2-4-5-3zm-256 1-2 4-5 2-11 11-10 14-10 18-10 21-7 15-5 15-3 12-1 9 4 1 9-9 8-9 9-14 1-3 19-3 9-1 4 28 2 4v10l2 6 2 5 4 1 5-10 5-8 3-14 2-2-2-12v-19l7-5v-2l-7-2-5-16-1-3-1-20-3-14-3-4h-5v-2l-1-4zm-257 0-1 4-3-3-10 3-6 3h-4l-10-5-10-1-10 6-12 11-7 6v-15l-2-3-5 1-6 7-5 12-5 21-5 34-1 11v16l3 3-1 2v12l2 2 5-1 4-8 5-18 5-21 1-2 9-1 14-9 10-9 10-11 6-10 5-12v-10l4 1 1 5 3 6h3l2 6-4-1-1-2-2 2-2 15-3 27-2 29-2 9-9 8-8 5 1 3 5 2 14-1 19-8 10-8 5-3v-2l-7-1-4-3h-8l5-26 5-41 1-23 5-1 4-3-1-4-7-6zm314 3-4 4-10 24-3 13-3 15-4 14-1 20 2 13 1 4 1 9 6 8h2l7-23 5-19h2l5 12 7 12 5 6 11 9 5 1 1-4v-13l-3-6-9-17-8-12 6-12 18-18 7-13 4-6-1-11-4-5-4-3h-7l-16 7-12 8 1-11-3-5zm-230 3m449 0m-408 15-3 3-3 8-10 54-3 23-1 18-1 6 1 3 6 1h3l1 3 3-1 3-7h11l15-5 19-7 18-6 4-4 4-11-2-3h-17l-17 4-27 9-5 2 2-5 6-37 5-43-1-5zm232 22-11 13-14 14 2 1 10-8 7-8 7-10zm671 35m-1703 41v1h6v-1zm15 1v1h9v-1zm712 92v1h7v-1zm-28 3-32 2v1h23l12-1v-2zm-138 22-16 1-1 2 26-1-1-2z" fill="#FEFEFE"/>
<path transform="translate(1097,57)" d="m0 0h46l51 2 60 3 47 3 43 3 31 3 2 1-1 5-1 1-31-2-14-1h-6l-1 1h-53l-58-3-31-1-79-1-34-2-7-2v-5l16-2 4-2z" fill="#FEFEFE"/>
<path transform="translate(1227,600)" d="m0 0 7 2 9 8 2 6 4 21v4h-3l1 2h2l1 3-5 18-8 16-7 9-5 4-5 1h-2l-7-1-8-5-4-5 3-9 1-5v-8l3-19 1-12 4-11 8-13 6-5zm18 44 1 2zm-1 3 1 3zm-1 4 1 2zm-1 2 1 2zm-1 2 1 2zm-1 2m-2 4m-1 2 1 2zm-1 2 1 2zm-1 2m-19 20v3l2-1z" fill="#FEFEFE"/>
<path transform="translate(1320,596)" d="m0 0h5l6 8 3 7v25l-3 18-5 16-6 12-8 5-8 1v-2l-4-2-4-7-3-15v-17l5-19 4-11 8-11 7-6z" fill="#FEFEFE"/>
<path transform="translate(873,595)" d="m0 0 4 2 4 5 2 5 1 6v31l-5 22-8 16-3 4-6 1h-8l-4-5-5-15-1-14 3-19 6-19 9-12z" fill="#FEFEFE"/>
<path transform="translate(955,68)" d="m0 0h20l7 3 2 4-3 3-5 1v1l10 2 1 3-2 1h-58l-6-1h-18l-38 4-10 3-33 5-5-1-1-2h-2l-1 2-14 5h-4l1-4 4-6 10-5 13-4 6 1 1 3 7-4 21-4 48-6 40-3z" fill="#FEFEFE"/>
<path transform="translate(1153,599)" d="m0 0 3 1 1 2-1 10-9 17-11 12-3 3h-6l-2-2v-9l3-10 6-10 8-9 7-4z" fill="#FEFEFE"/>
<path transform="translate(763,598)" d="m0 0h5l1 1v7l-4 9-11 13-10 8h-9l-1-1v-7l5-10 9-10 9-7z" fill="#FEFEFE"/>
<path transform="translate(1617,142)" d="m0 0 16 1 66 7 76 6 1 5-2 1-8-2-77-7-31-3-31-2-9-1z" fill="#FEFEFE"/>
<path transform="translate(1060,613)" d="m0 0h1l-1 12-1 23-5 2-10 1 4-11 9-21z" fill="#FEFEFE"/>
<path transform="translate(1026,63)" d="m0 0h23l1 7-4 1-7-1-3-3h-2l-3 4h-9l-4-5h-3v-2h7z" fill="#FEFEFE"/>
<path transform="translate(1407,76)" d="m0 0h12l29 3-1 4-17-1-22-2z" fill="#FEFEFE"/>
<path transform="translate(1381,73)" d="m0 0h10l11 1v5l-5 1-16-1-2-1 1-4z" fill="#FEFEFE"/>
<path transform="translate(1261,622)" d="m0 0 2 2 2 12v10l-2 15-3 5h-2l2-11 1-8z" fill="#FEFEFE"/>
<path transform="translate(191,830)" d="m0 0 5 2 16 1v4l-2 1h-17l-4-3 1-4z" fill="#FEFEFE"/>
<path transform="translate(353,241)" d="m0 0h2v6l-9 7-2 2-5-6 5-4z" fill="#FEFEFE"/>
<path transform="translate(92,701)" d="m0 0h14l2 2-3 1-30 2 3-3z" fill="#FEFEFE"/>
<path transform="translate(358,277)" d="m0 0h14v2l-15 2h-5l-1 4-3 3v-7l5-3z" fill="#FEFEFE"/>
<path transform="translate(865,688)" d="m0 0h5l-1 5-3 2-5-1v-4z" fill="#FEFEFE"/>
<path transform="translate(1758,140)" d="m0 0h6l3 3v4l-3 1-5-3z" fill="#FEFEFE"/>
<path transform="translate(1010,82)" d="m0 0h10l3 2-3 2h-12l-1-3z" fill="#FEFEFE"/>
<path transform="translate(1318,685)" d="m0 0h1v6l-5 4-5-2-1-2 8-4z" fill="#FEFEFE"/>
<path transform="translate(332,185)" d="m0 0h6v4l-10 1-1-3z" fill="#FEFEFE"/>
<path transform="translate(995,82)" d="m0 0h8l3 1v2l-3 1h-9v-3z" fill="#FEFEFE"/>
<path transform="translate(1133,670)" d="m0 0 4 2 7 11-1 2-5-5-5-8z" fill="#FEFEFE"/>
<path transform="translate(1745,139)" d="m0 0h6l2 1-1 4-8-1z" fill="#FEFEFE"/>
<path transform="translate(758,628)" d="m0 0 4 1-3 4h-3z" fill="#FEFEFE"/>
<path transform="translate(1242,673)" d="m0 0h1l-1 10-3 3z" fill="#FEFEFE"/>
<path transform="translate(1456,81)" d="m0 0h6v3h-5z" fill="#FEFEFE"/>
<path transform="translate(200,823)" d="m0 0 4 2v2l-5 1z" fill="#FEFEFE"/>
<path transform="translate(1072,639)" d="m0 0 2 1-1 5h-2v-5z" fill="#FEFEFE"/>
<path transform="translate(1773,143)" d="m0 0 3 1v4h-3z" fill="#FEFEFE"/>
<path transform="translate(917,698)" d="m0 0h2v5h-2z" fill="#FEFEFE"/>
<path transform="translate(1257,668)" d="m0 0 2 4-4 1z" fill="#FEFEFE"/>
<path transform="translate(1071,704)" d="m0 0 2 2 1 4h-2z" fill="#FEFEFE"/>
<path transform="translate(1245,665)" d="m0 0 1 4-2 2v-5z" fill="#FEFEFE"/>
<path transform="translate(1024,83)" d="m0 0h4v2h-5z" fill="#FEFEFE"/>
<path transform="translate(1166,607)" d="m0 0 1 3v2h-2z" fill="#FEFEFE"/>
<path transform="translate(1107,658)" d="m0 0 1 2-3 3z" fill="#FEFEFE"/>
<path transform="translate(59,697)" d="m0 0h5v1h-5z" fill="#FEFEFE"/>
<path transform="translate(888,663)" d="m0 0 2 1-3 2z" fill="#FEFEFE"/>
<path transform="translate(1046,655)" d="m0 0h5v1h-5z" fill="#FEFEFE"/>
<path transform="translate(771,615)" d="m0 0 2 1-3 2z" fill="#FEFEFE"/>
<path transform="translate(1806,161)" d="m0 0h5v1h-5z" fill="#FEFEFE"/>
<path transform="translate(1798,160)" d="m0 0h5v1h-5z" fill="#FEFEFE"/>
<path transform="translate(865,706)" d="m0 0 2 1h-3z" fill="#FEFEFE"/>
<path transform="translate(1147,698)" d="m0 0 3 1h-3z" fill="#FEFEFE"/>
<path transform="translate(145,482)" d="m0 0 3 1h-3z" fill="#FEFEFE"/>
<path transform="translate(867,704)" d="m0 0 2 1-2 1z" fill="#FEFEFE"/>
<path transform="translate(1150,700)" d="m0 0h2l-1 2z" fill="#FEFEFE"/>
<path transform="translate(1048,657)" d="m0 0 3 1z" fill="#FEFEFE"/>
<path transform="translate(1166,602)" d="m0 0" fill="#FEFEFE"/>
<path transform="translate(873,698)" d="m0 0" fill="#FEFEFE"/>
<path transform="translate(1145,697)" d="m0 0 2 1z" fill="#FEFEFE"/>
<path transform="translate(1238,686)" d="m0 0" fill="#FEFEFE"/>
<path transform="translate(1007,67)" d="m0 0 2 1z" fill="#FEFEFE"/>
<path transform="translate(1313,706)" d="m0 0" fill="#FEFEFE"/>
<path transform="translate(1203,705)" d="m0 0" fill="#FEFEFE"/>
<path transform="translate(869,703)" d="m0 0" fill="#FEFEFE"/>
<path transform="translate(870,702)" d="m0 0" fill="#FEFEFE"/>
<path transform="translate(871,701)" d="m0 0" fill="#FEFEFE"/>
<path transform="translate(872,700)" d="m0 0" fill="#FEFEFE"/>
<path transform="translate(1323,697)" d="m0 0" fill="#FEFEFE"/>
<path transform="translate(874,697)" d="m0 0" fill="#FEFEFE"/>
<path transform="translate(1141,696)" d="m0 0" fill="#FEFEFE"/>
<path transform="translate(1140,695)" d="m0 0" fill="#FEFEFE"/>
<path transform="translate(1139,694)" d="m0 0" fill="#FEFEFE"/>
<path transform="translate(1304,690)" d="m0 0" fill="#FEFEFE"/>
<path transform="translate(1237,688)" d="m0 0" fill="#FEFEFE"/>
<path transform="translate(1101,673)" d="m0 0" fill="#FEFEFE"/>
<path transform="translate(1243,671)" d="m0 0" fill="#FEFEFE"/>
<path transform="translate(1246,663)" d="m0 0" fill="#FEFEFE"/>
<path transform="translate(1338,662)" d="m0 0" fill="#FEFEFE"/>
<path transform="translate(893,656)" d="m0 0" fill="#FEFEFE"/>
<path transform="translate(1044,655)" d="m0 0" fill="#FEFEFE"/>
<path transform="translate(894,655)" d="m0 0" fill="#FEFEFE"/>
<path transform="translate(1031,653)" d="m0 0" fill="#FEFEFE"/>
<path transform="translate(796,651)" d="m0 0" fill="#FEFEFE"/>
<path transform="translate(1036,643)" d="m0 0" fill="#FEFEFE"/>
<path transform="translate(1169,607)" d="m0 0" fill="#FEFEFE"/>
<path transform="translate(1170,606)" d="m0 0" fill="#FEFEFE"/>
<path transform="translate(808,589)" d="m0 0" fill="#FEFEFE"/>
<path transform="translate(1006,68)" d="m0 0" fill="#FEFEFE"/>
</svg>
